<svg width="105" height="20" viewBox="0 0 105 20" fill="none" xmlns="http://www.w3.org/2000/svg">
<path d="M5.04025 2.436C6.36025 2.436 7.51825 2.694 8.51425 3.21C9.52225 3.726 10.2963 4.464 10.8363 5.424C11.3883 6.372 11.6643 7.476 11.6643 8.736C11.6643 9.996 11.3883 11.1 10.8363 12.048C10.2963 12.984 9.52225 13.71 8.51425 14.226C7.51825 14.742 6.36025 15 5.04025 15H0.64825V2.436H5.04025ZM4.95025 12.858C6.27025 12.858 7.29025 12.498 8.01025 11.778C8.73025 11.058 9.09025 10.044 9.09025 8.736C9.09025 7.428 8.73025 6.408 8.01025 5.676C7.29025 4.932 6.27025 4.56 4.95025 4.56H3.16825V12.858H4.95025ZM14.8286 3.84C14.3846 3.84 14.0126 3.702 13.7126 3.426C13.4246 3.138 13.2806 2.784 13.2806 2.364C13.2806 1.944 13.4246 1.596 13.7126 1.32C14.0126 1.032 14.3846 0.887999 14.8286 0.887999C15.2726 0.887999 15.6386 1.032 15.9266 1.32C16.2266 1.596 16.3766 1.944 16.3766 2.364C16.3766 2.784 16.2266 3.138 15.9266 3.426C15.6386 3.702 15.2726 3.84 14.8286 3.84ZM16.0706 5.028V15H13.5506V5.028H16.0706ZM22.4664 4.866C23.2104 4.866 23.8644 5.016 24.4284 5.316C24.9924 5.604 25.4364 5.982 25.7604 6.45V5.028H28.2984V15.072C28.2984 15.996 28.1124 16.818 27.7404 17.538C27.3684 18.27 26.8104 18.846 26.0664 19.266C25.3224 19.698 24.4224 19.914 23.3664 19.914C21.9504 19.914 20.7864 19.584 19.8744 18.924C18.9744 18.264 18.4644 17.364 18.3444 16.224H20.8464C20.9784 16.68 21.2604 17.04 21.6924 17.304C22.1364 17.58 22.6704 17.718 23.2944 17.718C24.0264 17.718 24.6204 17.496 25.0764 17.052C25.5324 16.62 25.7604 15.96 25.7604 15.072V13.524C25.4364 13.992 24.9864 14.382 24.4104 14.694C23.8464 15.006 23.1984 15.162 22.4664 15.162C21.6264 15.162 20.8584 14.946 20.1624 14.514C19.4664 14.082 18.9144 13.476 18.5064 12.696C18.1104 11.904 17.9124 10.998 17.9124 9.978C17.9124 8.97 18.1104 8.076 18.5064 7.296C18.9144 6.516 19.4604 5.916 20.1444 5.496C20.8404 5.076 21.6144 4.866 22.4664 4.866ZM25.7604 10.014C25.7604 9.402 25.6404 8.88 25.4004 8.448C25.1604 8.004 24.8364 7.668 24.4284 7.44C24.0204 7.2 23.5824 7.08 23.1144 7.08C22.6464 7.08 22.2144 7.194 21.8184 7.422C21.4224 7.65 21.0984 7.986 20.8464 8.43C20.6064 8.862 20.4864 9.378 20.4864 9.978C20.4864 10.578 20.6064 11.106 20.8464 11.562C21.0984 12.006 21.4224 12.348 21.8184 12.588C22.2264 12.828 22.6584 12.948 23.1144 12.948C23.5824 12.948 24.0204 12.834 24.4284 12.606C24.8364 12.366 25.1604 12.03 25.4004 11.598C25.6404 11.154 25.7604 10.626 25.7604 10.014ZM32.0376 3.84C31.5936 3.84 31.2216 3.702 30.9216 3.426C30.6336 3.138 30.4896 2.784 30.4896 2.364C30.4896 1.944 30.6336 1.596 30.9216 1.32C31.2216 1.032 31.5936 0.887999 32.0376 0.887999C32.4816 0.887999 32.8476 1.032 33.1356 1.32C33.4356 1.596 33.5856 1.944 33.5856 2.364C33.5856 2.784 33.4356 3.138 33.1356 3.426C32.8476 3.702 32.4816 3.84 32.0376 3.84ZM33.2796 5.028V15H30.7596V5.028H33.2796ZM38.7033 7.098V11.922C38.7033 12.258 38.7813 12.504 38.9373 12.66C39.1053 12.804 39.3813 12.876 39.7653 12.876H40.9353V15H39.3513C37.2273 15 36.1653 13.968 36.1653 11.904V7.098H34.9773V5.028H36.1653V2.562H38.7033V5.028H40.9353V7.098H38.7033ZM42.0999 9.978C42.0999 8.97 42.2979 8.076 42.6939 7.296C43.1019 6.516 43.6479 5.916 44.3319 5.496C45.0279 5.076 45.8019 4.866 46.6539 4.866C47.3979 4.866 48.0459 5.016 48.5979 5.316C49.1619 5.616 49.6119 5.994 49.9479 6.45V5.028H52.4859V15H49.9479V13.542C49.6239 14.01 49.1739 14.4 48.5979 14.712C48.0339 15.012 47.3799 15.162 46.6359 15.162C45.7959 15.162 45.0279 14.946 44.3319 14.514C43.6479 14.082 43.1019 13.476 42.6939 12.696C42.2979 11.904 42.0999 10.998 42.0999 9.978ZM49.9479 10.014C49.9479 9.402 49.8279 8.88 49.5879 8.448C49.3479 8.004 49.0239 7.668 48.6159 7.44C48.2079 7.2 47.7699 7.08 47.3019 7.08C46.8339 7.08 46.4019 7.194 46.0059 7.422C45.6099 7.65 45.2859 7.986 45.0339 8.43C44.7939 8.862 44.6739 9.378 44.6739 9.978C44.6739 10.578 44.7939 11.106 45.0339 11.562C45.2859 12.006 45.6099 12.348 46.0059 12.588C46.4139 12.828 46.8459 12.948 47.3019 12.948C47.7699 12.948 48.2079 12.834 48.6159 12.606C49.0239 12.366 49.3479 12.03 49.5879 11.598C49.8279 11.154 49.9479 10.626 49.9479 10.014ZM57.4671 1.68V15H54.9471V1.68H57.4671Z" fill="white"/>
<path d="M67.0848 8.556C67.7928 8.688 68.3748 9.042 68.8308 9.618C69.2868 10.194 69.5148 10.854 69.5148 11.598C69.5148 12.27 69.3468 12.864 69.0108 13.38C68.6868 13.884 68.2128 14.28 67.5888 14.568C66.9648 14.856 66.2268 15 65.3748 15H59.9568V2.436H65.1408C65.9928 2.436 66.7248 2.574 67.3368 2.85C67.9608 3.126 68.4288 3.51 68.7408 4.002C69.0648 4.494 69.2268 5.052 69.2268 5.676C69.2268 6.408 69.0288 7.02 68.6328 7.512C68.2488 8.004 67.7328 8.352 67.0848 8.556ZM62.4768 7.62H64.7808C65.3808 7.62 65.8428 7.488 66.1668 7.224C66.4908 6.948 66.6528 6.558 66.6528 6.054C66.6528 5.55 66.4908 5.16 66.1668 4.884C65.8428 4.608 65.3808 4.47 64.7808 4.47H62.4768V7.62ZM65.0148 12.948C65.6268 12.948 66.1008 12.804 66.4368 12.516C66.7848 12.228 66.9588 11.82 66.9588 11.292C66.9588 10.752 66.7788 10.332 66.4188 10.032C66.0588 9.72 65.5728 9.564 64.9608 9.564H62.4768V12.948H65.0148ZM70.8752 9.978C70.8752 8.97 71.0732 8.076 71.4692 7.296C71.8773 6.516 72.4233 5.916 73.1073 5.496C73.8033 5.076 74.5773 4.866 75.4293 4.866C76.1733 4.866 76.8213 5.016 77.3733 5.316C77.9373 5.616 78.3873 5.994 78.7233 6.45V5.028H81.2613V15H78.7233V13.542C78.3993 14.01 77.9493 14.4 77.3733 14.712C76.8093 15.012 76.1553 15.162 75.4113 15.162C74.5713 15.162 73.8033 14.946 73.1073 14.514C72.4233 14.082 71.8773 13.476 71.4692 12.696C71.0732 11.904 70.8752 10.998 70.8752 9.978ZM78.7233 10.014C78.7233 9.402 78.6033 8.88 78.3633 8.448C78.1233 8.004 77.7993 7.668 77.3913 7.44C76.9833 7.2 76.5453 7.08 76.0773 7.08C75.6093 7.08 75.1773 7.194 74.7812 7.422C74.3853 7.65 74.0613 7.986 73.8093 8.43C73.5693 8.862 73.4493 9.378 73.4493 9.978C73.4493 10.578 73.5693 11.106 73.8093 11.562C74.0613 12.006 74.3853 12.348 74.7812 12.588C75.1893 12.828 75.6213 12.948 76.0773 12.948C76.5453 12.948 76.9833 12.834 77.3913 12.606C77.7993 12.366 78.1233 12.03 78.3633 11.598C78.6033 11.154 78.7233 10.626 78.7233 10.014ZM89.2485 4.884C90.4365 4.884 91.3965 5.262 92.1285 6.018C92.8605 6.762 93.2265 7.806 93.2265 9.15V15H90.7065V9.492C90.7065 8.7 90.5085 8.094 90.1125 7.674C89.7165 7.242 89.1765 7.026 88.4925 7.026C87.7965 7.026 87.2445 7.242 86.8365 7.674C86.4405 8.094 86.2425 8.7 86.2425 9.492V15H83.7225V5.028H86.2425V6.27C86.5785 5.838 87.0045 5.502 87.5205 5.262C88.0485 5.01 88.6245 4.884 89.2485 4.884ZM101.527 15L98.1429 10.752V15H95.6229V1.68H98.1429V9.258L101.491 5.028H104.767L100.375 10.032L104.803 15H101.527Z" fill="#5CE1E6"/>
</svg>
