<svg width="184" height="40" viewBox="0 0 184 40" fill="none" xmlns="http://www.w3.org/2000/svg">
<path d="M50.512 11.248C52.272 11.248 53.816 11.592 55.144 12.28C56.488 12.968 57.52 13.952 58.24 15.232C58.976 16.496 59.344 17.968 59.344 19.648C59.344 21.328 58.976 22.8 58.24 24.064C57.52 25.312 56.488 26.28 55.144 26.968C53.816 27.656 52.272 28 50.512 28H44.656V11.248H50.512ZM50.392 25.144C52.152 25.144 53.512 24.664 54.472 23.704C55.432 22.744 55.912 21.392 55.912 19.648C55.912 17.904 55.432 16.544 54.472 15.568C53.512 14.576 52.152 14.08 50.392 14.08H48.016V25.144H50.392ZM63.5631 13.12C62.9711 13.12 62.4751 12.936 62.0751 12.568C61.6911 12.184 61.4991 11.712 61.4991 11.152C61.4991 10.592 61.6911 10.128 62.0751 9.76C62.4751 9.376 62.9711 9.184 63.5631 9.184C64.1551 9.184 64.6431 9.376 65.0271 9.76C65.4271 10.128 65.6271 10.592 65.6271 11.152C65.6271 11.712 65.4271 12.184 65.0271 12.568C64.6431 12.936 64.1551 13.12 63.5631 13.12ZM65.2191 14.704V28H61.8591V14.704H65.2191ZM73.7468 14.488C74.7388 14.488 75.6108 14.688 76.3628 15.088C77.1148 15.472 77.7068 15.976 78.1388 16.6V14.704H81.5228V28.096C81.5228 29.328 81.2748 30.424 80.7788 31.384C80.2828 32.36 79.5388 33.128 78.5468 33.688C77.5548 34.264 76.3548 34.552 74.9468 34.552C73.0588 34.552 71.5068 34.112 70.2908 33.232C69.0908 32.352 68.4108 31.152 68.2508 29.632H71.5868C71.7628 30.24 72.1388 30.72 72.7148 31.072C73.3068 31.44 74.0188 31.624 74.8508 31.624C75.8268 31.624 76.6188 31.328 77.2268 30.736C77.8348 30.16 78.1388 29.28 78.1388 28.096V26.032C77.7068 26.656 77.1068 27.176 76.3388 27.592C75.5868 28.008 74.7228 28.216 73.7468 28.216C72.6268 28.216 71.6028 27.928 70.6748 27.352C69.7468 26.776 69.0108 25.968 68.4668 24.928C67.9388 23.872 67.6748 22.664 67.6748 21.304C67.6748 19.96 67.9388 18.768 68.4668 17.728C69.0108 16.688 69.7388 15.888 70.6508 15.328C71.5788 14.768 72.6108 14.488 73.7468 14.488ZM78.1388 21.352C78.1388 20.536 77.9788 19.84 77.6588 19.264C77.3388 18.672 76.9068 18.224 76.3628 17.92C75.8188 17.6 75.2348 17.44 74.6108 17.44C73.9868 17.44 73.4108 17.592 72.8828 17.896C72.3548 18.2 71.9228 18.648 71.5868 19.24C71.2668 19.816 71.1068 20.504 71.1068 21.304C71.1068 22.104 71.2668 22.808 71.5868 23.416C71.9228 24.008 72.3548 24.464 72.8828 24.784C73.4268 25.104 74.0028 25.264 74.6108 25.264C75.2348 25.264 75.8188 25.112 76.3628 24.808C76.9068 24.488 77.3388 24.04 77.6588 23.464C77.9788 22.872 78.1388 22.168 78.1388 21.352ZM86.5084 13.12C85.9164 13.12 85.4204 12.936 85.0204 12.568C84.6364 12.184 84.4444 11.712 84.4444 11.152C84.4444 10.592 84.6364 10.128 85.0204 9.76C85.4204 9.376 85.9164 9.184 86.5084 9.184C87.1004 9.184 87.5884 9.376 87.9724 9.76C88.3724 10.128 88.5724 10.592 88.5724 11.152C88.5724 11.712 88.3724 12.184 87.9724 12.568C87.5884 12.936 87.1004 13.12 86.5084 13.12ZM88.1644 14.704V28H84.8044V14.704H88.1644ZM95.3961 17.464V23.896C95.3961 24.344 95.5001 24.672 95.7081 24.88C95.9321 25.072 96.3001 25.168 96.8121 25.168H98.3721V28H96.2601C93.4281 28 92.0121 26.624 92.0121 23.872V17.464H90.4281V14.704H92.0121V11.416H95.3961V14.704H98.3721V17.464H95.3961ZM99.9248 21.304C99.9248 19.96 100.189 18.768 100.717 17.728C101.261 16.688 101.989 15.888 102.901 15.328C103.829 14.768 104.861 14.488 105.997 14.488C106.989 14.488 107.853 14.688 108.589 15.088C109.341 15.488 109.941 15.992 110.389 16.6V14.704H113.773V28H110.389V26.056C109.957 26.68 109.357 27.2 108.589 27.616C107.837 28.016 106.965 28.216 105.973 28.216C104.853 28.216 103.829 27.928 102.901 27.352C101.989 26.776 101.261 25.968 100.717 24.928C100.189 23.872 99.9248 22.664 99.9248 21.304ZM110.389 21.352C110.389 20.536 110.229 19.84 109.909 19.264C109.589 18.672 109.157 18.224 108.613 17.92C108.069 17.6 107.485 17.44 106.861 17.44C106.237 17.44 105.661 17.592 105.133 17.896C104.605 18.2 104.173 18.648 103.837 19.24C103.517 19.816 103.357 20.504 103.357 21.304C103.357 22.104 103.517 22.808 103.837 23.416C104.173 24.008 104.605 24.464 105.133 24.784C105.677 25.104 106.253 25.264 106.861 25.264C107.485 25.264 108.069 25.112 108.613 24.808C109.157 24.488 109.589 24.04 109.909 23.464C110.229 22.872 110.389 22.168 110.389 21.352ZM120.414 10.24V28H117.054V10.24H120.414Z" fill="white"/>
<path d="M133.238 19.408C134.182 19.584 134.958 20.056 135.566 20.824C136.174 21.592 136.478 22.472 136.478 23.464C136.478 24.36 136.254 25.152 135.806 25.84C135.374 26.512 134.742 27.04 133.91 27.424C133.078 27.808 132.094 28 130.958 28H123.734V11.248H130.646C131.782 11.248 132.758 11.432 133.574 11.8C134.406 12.168 135.03 12.68 135.446 13.336C135.878 13.992 136.094 14.736 136.094 15.568C136.094 16.544 135.83 17.36 135.302 18.016C134.79 18.672 134.102 19.136 133.238 19.408ZM127.094 18.16H130.166C130.966 18.16 131.582 17.984 132.014 17.632C132.446 17.264 132.662 16.744 132.662 16.072C132.662 15.4 132.446 14.88 132.014 14.512C131.582 14.144 130.966 13.96 130.166 13.96H127.094V18.16ZM130.478 25.264C131.294 25.264 131.926 25.072 132.374 24.688C132.838 24.304 133.07 23.76 133.07 23.056C133.07 22.336 132.83 21.776 132.35 21.376C131.87 20.96 131.222 20.752 130.406 20.752H127.094V25.264H130.478ZM138.292 21.304C138.292 19.96 138.556 18.768 139.084 17.728C139.628 16.688 140.356 15.888 141.268 15.328C142.196 14.768 143.228 14.488 144.364 14.488C145.356 14.488 146.22 14.688 146.956 15.088C147.708 15.488 148.308 15.992 148.756 16.6V14.704H152.14V28H148.756V26.056C148.324 26.68 147.724 27.2 146.956 27.616C146.204 28.016 145.332 28.216 144.34 28.216C143.22 28.216 142.196 27.928 141.268 27.352C140.356 26.776 139.628 25.968 139.084 24.928C138.556 23.872 138.292 22.664 138.292 21.304ZM148.756 21.352C148.756 20.536 148.596 19.84 148.276 19.264C147.956 18.672 147.524 18.224 146.98 17.92C146.436 17.6 145.852 17.44 145.228 17.44C144.604 17.44 144.028 17.592 143.5 17.896C142.972 18.2 142.54 18.648 142.204 19.24C141.884 19.816 141.724 20.504 141.724 21.304C141.724 22.104 141.884 22.808 142.204 23.416C142.54 24.008 142.972 24.464 143.5 24.784C144.044 25.104 144.62 25.264 145.228 25.264C145.852 25.264 146.436 25.112 146.98 24.808C147.524 24.488 147.956 24.04 148.276 23.464C148.596 22.872 148.756 22.168 148.756 21.352ZM162.79 14.512C164.374 14.512 165.654 15.016 166.63 16.024C167.606 17.016 168.094 18.408 168.094 20.2V28H164.734V20.656C164.734 19.6 164.47 18.792 163.942 18.232C163.414 17.656 162.694 17.368 161.782 17.368C160.854 17.368 160.118 17.656 159.574 18.232C159.046 18.792 158.782 19.6 158.782 20.656V28H155.422V14.704H158.782V16.36C159.23 15.784 159.798 15.336 160.486 15.016C161.19 14.68 161.958 14.512 162.79 14.512ZM179.161 28L174.649 22.336V28H171.289V10.24H174.649V20.344L179.113 14.704H183.481L177.625 21.376L183.529 28H179.161Z" fill="#5CE1E6"/>
<path d="M20 0C16.0444 -4.71704e-08 12.1776 1.17298 8.8886 3.37061C5.59961 5.56823 3.03616 8.69181 1.52241 12.3463C0.00865735 16.0009 -0.38741 20.0222 0.384294 23.9018C1.156 27.7814 3.06081 31.3451 5.85786 34.1421C8.65491 36.9392 12.2186 38.844 16.0982 39.6157C19.9778 40.3874 23.9991 39.9913 27.6537 38.4776C31.3082 36.9638 34.4318 34.4004 36.6294 31.1114C38.827 27.8224 40 23.9556 40 20L30 20C30 21.9778 29.4135 23.9112 28.3147 25.5557C27.2159 27.2002 25.6541 28.4819 23.8268 29.2388C21.9996 29.9957 19.9889 30.1937 18.0491 29.8079C16.1093 29.422 14.3275 28.4696 12.9289 27.0711C11.5304 25.6725 10.578 23.8907 10.1921 21.9509C9.8063 20.0111 10.0043 18.0004 10.7612 16.1732C11.5181 14.3459 12.7998 12.7841 14.4443 11.6853C16.0888 10.5865 18.0222 10 20 10L20 0Z" fill="white"/>
<path d="M20 0C17.3736 -3.132e-08 14.7728 0.517315 12.3463 1.52241C9.91982 2.5275 7.71504 4.00069 5.85786 5.85787C4.00069 7.71504 2.5275 9.91982 1.52241 12.3463C0.517315 14.7728 -3.96581e-07 17.3736 0 20L10 20C10 18.6868 10.2587 17.3864 10.7612 16.1732C11.2638 14.9599 12.0003 13.8575 12.9289 12.9289C13.8575 12.0003 14.9599 11.2638 16.1732 10.7612C17.3864 10.2587 18.6868 10 20 10L20 0Z" fill="#5CE1E6"/>
<circle cx="20" cy="20" r="6.25" fill="#5CE1E6"/>
<path d="M26.25 20C26.25 19.1792 26.0883 18.3665 25.7742 17.6082C25.4602 16.8499 24.9998 16.1609 24.4194 15.5806C23.8391 15.0002 23.1501 14.5398 22.3918 14.2258C21.6335 13.9117 20.8208 13.75 20 13.75C19.1792 13.75 18.3665 13.9117 17.6082 14.2258C16.8499 14.5398 16.1609 15.0002 15.5806 15.5806C15.0002 16.1609 14.5398 16.8499 14.2258 17.6082C13.9117 18.3665 13.75 19.1792 13.75 20L20 20H26.25Z" fill="white"/>
</svg>
